<?xml version="1.0" encoding="UTF-8"?><svg id="Layer_1" xmlns="http://www.w3.org/2000/svg" viewBox="0 0 333.45 95.64"><path d="M333.45,86.05c0,5.28-4.31,9.59-9.59,9.59H9.63c-5.32,0-9.63-4.31-9.63-9.59V9.59C0,4.26,4.31,0,9.63,0H323.82c5.32,0,9.59,4.31,9.59,9.59h0l.04,76.47h0Z" fill="#fff"/><path d="M333.45,86.05c0,5.28-4.31,9.59-9.59,9.59H9.63c-5.32,0-9.63-4.31-9.63-9.59V9.59C0,4.26,4.31,0,9.63,0H323.82c5.32,0,9.59,4.31,9.59,9.59h0l.04,76.47h0Z"/><path d="M73.26,47.29c-.08-8.06,6.63-11.99,6.92-12.16-3.8-5.53-9.67-6.25-11.7-6.33-4.94-.51-9.71,2.96-12.2,2.96s-6.42-2.91-10.6-2.83c-5.36,.08-10.39,3.17-13.13,7.98-5.66,9.84-1.44,24.24,4.01,32.18,2.7,3.88,5.91,8.23,10.05,8.06,4.05-.17,5.57-2.58,10.51-2.58s6.29,2.58,10.56,2.49c4.35-.08,7.14-3.88,9.75-7.81,3.12-4.43,4.39-8.83,4.48-9.08-.21-.04-8.57-3.21-8.66-12.88h0Zm-8.02-23.73c2.2-2.74,3.67-6.46,3.25-10.22-3.17,.13-7.14,2.2-9.42,4.86-2.03,2.36-3.84,6.21-3.34,9.84,3.55,.25,7.22-1.82,9.5-4.48Z" fill="#fff"/><path d="M132.21,76.6h-5.7l-3.12-9.8h-10.81l-2.96,9.8h-5.53l10.73-33.32h6.63l10.77,33.32h0Zm-9.75-13.89l-2.83-8.7c-.3-.89-.84-3-1.69-6.29h-.08c-.34,1.44-.84,3.5-1.56,6.29l-2.79,8.7h8.95Zm37.28,1.6c0,4.1-1.1,7.3-3.34,9.67-1.98,2.11-4.48,3.17-7.39,3.17-3.17,0-5.49-1.14-6.88-3.42v12.63h-5.32v-25.88c0-2.58-.08-5.19-.21-7.9h4.69l.3,3.8h.08c1.77-2.87,4.48-4.31,8.11-4.31,2.83,0,5.19,1.14,7.09,3.38,1.9,2.24,2.87,5.19,2.87,8.87h0Zm-5.45,.21c0-2.32-.51-4.26-1.56-5.78-1.14-1.56-2.7-2.36-4.64-2.36-1.31,0-2.53,.42-3.59,1.31s-1.77,2.03-2.11,3.42c-.13,.55-.21,1.06-.25,1.6v4.01c0,1.73,.55,3.21,1.6,4.43,1.06,1.18,2.45,1.82,4.18,1.82,2.03,0,3.59-.76,4.69-2.32,1.14-1.56,1.69-3.59,1.69-6.12Zm33.1-.21c0,4.1-1.1,7.3-3.34,9.67-1.98,2.11-4.48,3.17-7.39,3.17-3.17,0-5.49-1.14-6.88-3.42v12.63h-5.32v-25.88c0-2.58-.08-5.19-.21-7.9h4.69l.3,3.8h.08c1.77-2.87,4.48-4.31,8.11-4.31,2.83,0,5.19,1.14,7.09,3.38,1.9,2.24,2.87,5.19,2.87,8.87h0Zm-5.45,.21c0-2.32-.55-4.26-1.6-5.78-1.14-1.56-2.7-2.36-4.64-2.36-1.31,0-2.53,.42-3.59,1.31s-1.77,2.03-2.11,3.42c-.17,.68-.25,1.18-.25,1.6v4.01c0,1.73,.55,3.21,1.6,4.43,1.06,1.18,2.45,1.82,4.18,1.82,2.03,0,3.59-.76,4.69-2.32,1.14-1.56,1.73-3.59,1.73-6.12Zm36.31,2.74c0,2.83-.97,5.15-2.96,6.92-2.15,1.94-5.19,2.91-9.08,2.91-3.59,0-6.46-.68-8.61-2.07l1.22-4.43c2.32,1.39,4.9,2.07,7.73,2.07,2.03,0,3.59-.46,4.69-1.35,1.14-.89,1.69-2.11,1.69-3.63,0-1.35-.46-2.49-1.39-3.42-.93-.93-2.45-1.77-4.6-2.58-5.83-2.2-8.74-5.36-8.74-9.54,0-2.74,1.01-4.98,3.08-6.71s4.77-2.62,8.19-2.62c3.04,0,5.57,.55,7.56,1.56l-1.35,4.35c-1.9-1.01-4.01-1.52-6.42-1.52-1.9,0-3.38,.46-4.43,1.39-.89,.84-1.35,1.82-1.35,3.04,0,1.31,.51,2.41,1.52,3.25,.89,.8,2.49,1.65,4.86,2.58,2.87,1.14,4.98,2.49,6.33,4.05,1.39,1.52,2.07,3.46,2.07,5.74h0Zm17.73-10.68h-5.87v11.65c0,2.96,1.06,4.43,3.12,4.43,.97,0,1.73-.08,2.36-.25l.13,4.05c-1.06,.38-2.45,.59-4.14,.59-2.11,0-3.76-.63-4.94-1.94-1.18-1.27-1.77-3.46-1.77-6.46v-12.12h-3.5v-4.01h3.5v-4.39l5.24-1.56v6h5.87v4.01h0Zm26.48,7.81c0,3.67-1.06,6.71-3.17,9.08-2.2,2.45-5.15,3.67-8.78,3.67s-6.33-1.18-8.44-3.5-3.12-5.28-3.12-8.87,1.1-6.76,3.25-9.16c2.15-2.36,5.07-3.55,8.74-3.55s6.38,1.18,8.49,3.5c2.03,2.32,3.04,5.24,3.04,8.83h0Zm-5.53,.13c0-2.2-.46-4.1-1.44-5.66-1.14-1.9-2.7-2.87-4.81-2.87s-3.76,.97-4.9,2.87c-.97,1.56-1.44,3.5-1.44,5.78s.46,4.1,1.44,5.66c1.14,1.9,2.74,2.87,4.86,2.87s3.63-.97,4.81-2.91c.97-1.65,1.48-3.55,1.48-5.74h0Zm22.89-7.22c-.55-.08-1.1-.17-1.69-.13-1.86,0-3.34,.72-4.35,2.11-.89,1.27-1.35,2.83-1.35,4.73v12.63h-5.32v-16.47c0-2.53-.04-5.02-.17-7.56h4.64l.21,4.6h.13c.55-1.56,1.44-2.87,2.66-3.8,1.1-.84,2.45-1.27,3.84-1.27,.51,0,.93,.04,1.35,.08l.04,5.07h0Zm23.9,6.16c0,.8-.04,1.6-.21,2.41h-16c.04,2.36,.84,4.18,2.32,5.45,1.35,1.1,3.08,1.69,5.24,1.69,2.36,0,4.52-.38,6.46-1.14l.84,3.72c-2.28,.97-4.94,1.48-8.06,1.48-3.72,0-6.67-1.1-8.78-3.29-2.11-2.2-3.17-5.15-3.17-8.83s.97-6.63,2.96-9.04c2.07-2.58,4.86-3.84,8.4-3.84s6.08,1.27,7.85,3.84c1.44,2.03,2.15,4.56,2.15,7.56h0Zm-5.11-1.39c.04-1.6-.3-2.96-1.06-4.1-.93-1.48-2.36-2.24-4.26-2.24-1.73,0-3.17,.72-4.26,2.2-.89,1.14-1.44,2.53-1.56,4.14h11.15Z" fill="#fff"/><path d="M111.01,31.5c-1.48,0-2.79-.08-3.84-.21V15.2c1.48-.21,3-.34,4.52-.34,6.12,0,8.95,3,8.95,7.94,0,5.66-3.34,8.7-9.63,8.7Zm.93-14.57c-.84,0-1.52,.04-2.11,.17v12.25c.3,.04,.93,.08,1.77,.08,4.01,0,6.29-2.28,6.29-6.54,0-3.84-2.07-5.95-5.95-5.95Zm17.48,14.69c-3.46,0-5.7-2.58-5.7-6.08s2.28-6.25,5.87-6.25,5.7,2.45,5.7,6.04c.04,3.72-2.32,6.29-5.87,6.29Zm.13-10.39c-1.9,0-3.12,1.77-3.12,4.26s1.22,4.22,3.08,4.22,3.08-1.9,3.08-4.26c0-2.41-1.22-4.22-3.04-4.22h0Zm25.46-1.69l-3.67,11.82h-2.41l-1.52-5.11c-.38-1.27-.72-2.53-.93-3.8h-.04c-.21,1.27-.55,2.58-.93,3.8l-1.65,5.11h-2.49l-3.46-11.82h2.7l1.35,5.62c.3,1.35,.59,2.62,.8,3.8h.04c.21-1.01,.51-2.24,.97-3.76l1.69-5.62h2.15l1.6,5.53c.38,1.35,.72,2.66,.93,3.88h.08c.17-1.22,.42-2.49,.8-3.88l1.44-5.53,2.53-.04h0Zm13.6,11.82h-2.62v-6.8c0-2.07-.8-3.12-2.36-3.12s-2.62,1.35-2.62,2.87v7.01h-2.62v-8.44c0-1.06-.04-2.15-.08-3.38h2.32l.13,1.82h.08c.72-1.27,2.15-2.07,3.76-2.07,2.49,0,4.1,1.9,4.1,4.98l-.08,7.14h0Zm7.22,0h-2.62V14.15h2.62V31.37Zm9.59,.25c-3.46,0-5.7-2.58-5.7-6.08s2.28-6.25,5.87-6.25,5.7,2.45,5.7,6.04c0,3.72-2.36,6.29-5.87,6.29Zm.08-10.39c-1.9,0-3.12,1.77-3.12,4.26s1.22,4.22,3.08,4.22,3.08-1.9,3.08-4.26c.04-2.41-1.18-4.22-3.04-4.22h0Zm16.13,10.13l-.21-1.35h-.08c-.8,1.1-1.98,1.65-3.46,1.65-2.11,0-3.63-1.48-3.63-3.46,0-2.91,2.53-4.43,6.88-4.43v-.21c0-1.56-.84-2.32-2.45-2.32-1.18,0-2.2,.3-3.08,.89l-.55-1.73c1.1-.68,2.45-1.01,4.05-1.01,3.08,0,4.64,1.65,4.64,4.9v4.35c0,1.18,.04,2.11,.17,2.83l-2.28-.08h0Zm-.34-5.87c-2.91,0-4.39,.72-4.39,2.36,0,1.22,.76,1.86,1.82,1.86,1.35,0,2.58-1.01,2.58-2.41v-1.82Zm15.29,5.87l-.13-1.9h-.08c-.76,1.44-2.03,2.15-3.8,2.15-2.83,0-4.94-2.49-4.94-6.04s2.2-6.29,5.15-6.29c1.56,0,2.7,.55,3.34,1.6h.04v-6.8h2.62v14.06c0,1.14,.04,2.2,.08,3.17h-2.28v.04Zm-.38-6.97c0-1.65-1.1-3.08-2.74-3.08-1.94,0-3.12,1.73-3.12,4.14s1.22,4.01,3.08,4.01c1.65,0,2.83-1.44,2.83-3.12l-.04-1.94h0Zm19.25,7.22c-3.46,0-5.7-2.58-5.7-6.08s2.28-6.25,5.87-6.25,5.7,2.45,5.7,6.04c.04,3.72-2.32,6.29-5.87,6.29h0Zm.13-10.39c-1.9,0-3.12,1.77-3.12,4.26s1.22,4.22,3.08,4.22,3.08-1.9,3.08-4.26c0-2.41-1.18-4.22-3.04-4.22h0Zm19.89,10.13h-2.62v-6.8c0-2.07-.8-3.12-2.36-3.12s-2.62,1.35-2.62,2.87v7.01h-2.62v-8.44c0-1.06-.04-2.15-.08-3.38h2.32l.13,1.82h.08c.72-1.27,2.15-2.07,3.76-2.07,2.49,0,4.1,1.9,4.1,4.98v7.14h-.08Zm17.65-9.84h-2.87v5.74c0,1.48,.51,2.2,1.52,2.2,.46,0,.84-.04,1.18-.13l.08,1.98c-.51,.21-1.18,.3-2.03,.3-2.07,0-3.29-1.14-3.29-4.14v-5.95h-1.77v-1.98h1.73v-2.15l2.58-.76v2.96h2.87v1.94h0Zm13.89,9.84h-2.62v-6.71c0-2.11-.8-3.17-2.36-3.17-1.35,0-2.62,.93-2.62,2.79v7.14h-2.62V14.19h2.62v7.09h.04c.84-1.27,2.03-1.9,3.55-1.9,2.49,0,4.01,1.94,4.01,5.02v6.97h0Zm14.23-5.28h-7.85c.04,2.24,1.52,3.5,3.72,3.5,1.18,0,2.24-.21,3.17-.55l.42,1.82c-1.1,.51-2.45,.72-3.97,.72-3.67,0-5.87-2.32-5.87-5.95s2.24-6.33,5.57-6.33c3,0,4.9,2.24,4.9,5.62,.04,.38,0,.8-.08,1.18h0Zm-2.41-1.86c0-1.82-.93-3.12-2.62-3.12-1.52,0-2.7,1.31-2.87,3.12h5.49Z" fill="#fff"/></svg>