<?xml version="1.0" encoding="utf-8"?>
<!-- Generator: Adobe Illustrator 26.3.0, SVG Export Plug-In . SVG Version: 6.00 Build 0)  -->
<svg version="1.1" id="Layer_1" xmlns="http://www.w3.org/2000/svg" xmlns:xlink="http://www.w3.org/1999/xlink" x="0px" y="0px"
	 viewBox="0 0 146 40" style="enable-background:new 0 0 146 40;" xml:space="preserve">
<style type="text/css">
	.st0{fill:#FBB040;}
	.st1{enable-background:new    ;}
	.st2{fill:#FFFFFF;}
</style>
<g>
	<path d="M140.6,39.9H5.4c-3,0-5.4-2.2-5.4-5V5.1c0-2.7,2.4-5,5.4-5h135.2c3,0,5.4,2.2,5.4,5V35C146,37.7,143.6,39.9,140.6,39.9"/>
</g>
<g>
	<path class="st0" d="M33.1,12.7c0,2.7-2.2,4.9-4.9,4.9s-4.9-2.2-4.9-4.9s2.2-4.9,4.9-4.9C30.9,7.7,33.1,10,33.1,12.7z"/>
</g>
<g>
	<path class="st0" d="M36.8,26.2c0,0.7-0.6,1.2-1.2,1.2H20.8c-0.7,0-1.2-0.6-1.2-1.2c0-4.1,3.3-7.4,7.4-7.4h2.5
		C33.5,18.8,36.8,22.2,36.8,26.2z"/>
</g>
<g>
	<path class="st0" d="M17.7,26.3c0,0.3,0.1,0.6,0.2,0.9h-4.7c-0.5,0-0.9-0.4-0.9-0.9v-0.4c0-2.8,2.3-5,5.1-5.1h0.8
		c0.6,0,1.2,0.1,1.7,0.3C18.5,22.5,17.7,24.4,17.7,26.3z"/>
</g>
<g>
	<path class="st0" d="M21.3,16.3c0,2-1.6,3.6-3.6,3.6s-3.6-1.6-3.6-3.6s1.6-3.6,3.6-3.6C19.7,12.7,21.3,14.3,21.3,16.3z"/>
</g>
<g>
	<path class="st0" d="M38.7,26.3c0,0.3-0.1,0.6-0.2,0.9h4.7c0.5,0,0.9-0.4,0.9-0.9v-0.4c0-2.8-2.3-5-5.1-5.1h-0.8
		c-0.6,0-1.2,0.1-1.7,0.3C37.9,22.5,38.7,24.4,38.7,26.3z"/>
</g>
<g>
	<path class="st0" d="M35.1,16.3c0,2,1.6,3.6,3.6,3.6s3.6-1.6,3.6-3.6s-1.6-3.6-3.6-3.6C36.7,12.7,35.1,14.3,35.1,16.3z"/>
</g>
<g class="st1">
	<path class="st2" d="M56.6,8c-0.2-0.4-0.5-0.7-0.9-0.9s-0.8-0.3-1.3-0.3s-1,0.1-1.4,0.4c-0.4,0.2-0.7,0.6-1,1
		c-0.2,0.4-0.4,1-0.4,1.5c0,0.6,0.1,1.1,0.4,1.5c0.2,0.4,0.6,0.8,1,1s0.9,0.4,1.4,0.4c0.7,0,1.3-0.2,1.8-0.6
		c0.4-0.4,0.7-0.9,0.8-1.6h-3V9.3h4.4v1c-0.1,0.6-0.3,1.2-0.7,1.7s-0.8,0.9-1.4,1.3s-1.2,0.5-1.9,0.5c-0.8,0-1.5-0.2-2.1-0.5
		c-0.6-0.4-1.1-0.8-1.5-1.5s-0.6-1.3-0.6-2.1c0-0.8,0.2-1.5,0.6-2.1s0.9-1.1,1.5-1.5s1.3-0.5,2.1-0.5c0.9,0,1.6,0.2,2.3,0.6
		s1.2,1,1.5,1.8C58.2,8,56.6,8,56.6,8z"/>
	<path class="st2" d="M65.5,7.3v6.4h-1.3V13c-0.2,0.3-0.5,0.5-0.8,0.6c-0.3,0.2-0.7,0.2-1.1,0.2c-0.5,0-1-0.1-1.4-0.3
		S60.2,13,60,12.6s-0.3-0.9-0.3-1.5V7.3H61v3.6c0,0.6,0.1,1,0.4,1.3c0.3,0.3,0.7,0.5,1.2,0.5s0.9-0.2,1.2-0.5s0.4-0.7,0.4-1.3V7.3
		H65.5z"/>
	<path class="st2" d="M67.2,8.8c0.3-0.5,0.6-0.9,1.1-1.2c0.5-0.3,1-0.4,1.5-0.4s0.9,0.1,1.3,0.3S71.8,8,72,8.3v-1h1.3v6.4H72v-1
		c-0.2,0.3-0.5,0.6-0.9,0.8s-0.8,0.3-1.3,0.3s-1.1-0.1-1.5-0.4c-0.5-0.3-0.8-0.7-1.1-1.2c-0.3-0.5-0.4-1.1-0.4-1.7
		S66.9,9.3,67.2,8.8z M71.7,9.4c-0.2-0.3-0.4-0.6-0.7-0.7c-0.3-0.2-0.6-0.3-1-0.3c-0.3,0-0.7,0.1-1,0.2c-0.3,0.2-0.5,0.4-0.7,0.7
		S68,10,68,10.4s0.1,0.8,0.3,1.2c0.2,0.3,0.4,0.6,0.7,0.8c0.3,0.2,0.6,0.3,0.9,0.3s0.7-0.1,1-0.3s0.5-0.4,0.7-0.7s0.3-0.7,0.3-1.2
		C72,10.1,71.9,9.7,71.7,9.4z"/>
	<path class="st2" d="M77.2,7.5c0.3-0.2,0.7-0.3,1.1-0.3v1.4H78c-0.5,0-0.9,0.1-1.2,0.4c-0.3,0.3-0.4,0.7-0.4,1.4v3.4h-1.3V7.3h1.3
		v0.9C76.6,7.9,76.9,7.7,77.2,7.5z"/>
	<path class="st2" d="M79.5,8.8c0.3-0.5,0.6-0.9,1.1-1.2c0.5-0.3,1-0.4,1.5-0.4c0.4,0,0.8,0.1,1.2,0.3c0.4,0.2,0.7,0.4,1,0.7V5.1
		h1.3v8.6h-1.3v-1c-0.2,0.3-0.5,0.6-0.9,0.8s-0.8,0.3-1.3,0.3c-0.6,0-1.1-0.1-1.5-0.4c-0.5-0.3-0.8-0.7-1.1-1.2
		c-0.3-0.5-0.4-1.1-0.4-1.7S79.2,9.3,79.5,8.8z M84.1,9.4c-0.2-0.3-0.4-0.6-0.7-0.7c-0.3-0.2-0.6-0.3-1-0.3s-0.7,0.1-1,0.2
		c-0.3,0.2-0.5,0.4-0.7,0.7s-0.3,0.7-0.3,1.1s0.1,0.8,0.3,1.2s0.4,0.6,0.7,0.8c0.3,0.2,0.6,0.3,0.9,0.3s0.7-0.1,1-0.3
		s0.5-0.4,0.7-0.7s0.3-0.7,0.3-1.2C84.3,10.1,84.3,9.7,84.1,9.4z"/>
	<path class="st2" d="M87.5,6.2c-0.2-0.2-0.2-0.4-0.2-0.6s0.1-0.4,0.2-0.6c0.2-0.2,0.4-0.2,0.6-0.2s0.4,0.1,0.6,0.2
		c0.2,0.2,0.2,0.4,0.2,0.6S88.8,6,88.7,6.2c-0.2,0.2-0.4,0.2-0.6,0.2C87.9,6.5,87.7,6.4,87.5,6.2z M88.7,7.3v6.4h-1.3V7.3H88.7z"/>
	<path class="st2" d="M90.4,8.8c0.3-0.5,0.6-0.9,1.1-1.2c0.5-0.3,1-0.4,1.5-0.4s0.9,0.1,1.3,0.3c0.4,0.2,0.7,0.4,0.9,0.7V7.3h1.3
		v6.4h-1.3v-1c-0.2,0.3-0.5,0.6-0.9,0.8s-0.8,0.3-1.3,0.3s-1.1-0.1-1.5-0.4c-0.5-0.3-0.8-0.7-1.1-1.2c-0.3-0.5-0.4-1.1-0.4-1.7
		S90.2,9.3,90.4,8.8z M95,9.4c-0.2-0.3-0.4-0.6-0.7-0.7c-0.3-0.2-0.6-0.3-1-0.3s-0.7,0.1-1,0.2C92,8.8,91.8,9,91.6,9.3
		s-0.3,0.7-0.3,1.1s0.1,0.8,0.3,1.2s0.4,0.6,0.7,0.8c0.3,0.2,0.6,0.3,0.9,0.3s0.7-0.1,1-0.3s0.5-0.4,0.7-0.7s0.3-0.7,0.3-1.2
		C95.3,10.1,95.2,9.7,95,9.4z"/>
	<path class="st2" d="M102.9,7.5c0.4,0.2,0.7,0.5,0.9,0.9s0.3,0.9,0.3,1.5v3.8h-1.3v-3.6c0-0.6-0.1-1-0.4-1.3s-0.7-0.5-1.2-0.5
		s-0.9,0.2-1.2,0.5c-0.3,0.3-0.4,0.7-0.4,1.3v3.6h-1.3V7.3h1.3V8c0.2-0.3,0.5-0.5,0.8-0.6s0.7-0.2,1.1-0.2
		C102.1,7.2,102.5,7.3,102.9,7.5z"/>
	<path class="st2" d="M106.9,13.6c-0.4-0.2-0.7-0.4-0.9-0.7c-0.2-0.3-0.4-0.7-0.4-1.1h1.4c0,0.3,0.2,0.5,0.4,0.7
		c0.2,0.2,0.5,0.3,0.9,0.3s0.7-0.1,0.9-0.2c0.2-0.1,0.3-0.3,0.3-0.6c0-0.2-0.1-0.4-0.3-0.5s-0.6-0.2-1.1-0.4
		c-0.5-0.1-0.9-0.3-1.2-0.4c-0.3-0.1-0.6-0.3-0.8-0.6c-0.2-0.3-0.3-0.6-0.3-1c0-0.3,0.1-0.7,0.3-0.9c0.2-0.3,0.5-0.5,0.9-0.7
		s0.8-0.2,1.3-0.2c0.7,0,1.3,0.2,1.8,0.6c0.4,0.4,0.7,0.9,0.7,1.5h-1.3c0-0.3-0.1-0.5-0.3-0.7s-0.5-0.3-0.8-0.3s-0.6,0.1-0.8,0.2
		c-0.2,0.1-0.3,0.3-0.3,0.5s0.1,0.3,0.2,0.4c0.1,0.1,0.3,0.2,0.5,0.3s0.4,0.1,0.8,0.2c0.5,0.1,0.8,0.2,1.1,0.4s0.6,0.3,0.8,0.6
		c0.2,0.2,0.3,0.6,0.3,1s-0.1,0.7-0.3,1s-0.5,0.5-0.9,0.7s-0.8,0.2-1.3,0.2C107.7,13.8,107.3,13.8,106.9,13.6z"/>
</g>
<g class="st1">
	<path class="st2" d="M51.2,20.6c0.4-0.7,1-1.3,1.7-1.7c0.7-0.4,1.6-0.6,2.5-0.6c1.1,0,2,0.3,2.8,0.8s1.4,1.3,1.7,2.3h-2.2
		c-0.2-0.5-0.5-0.8-0.9-1S56,20,55.5,20c-0.6,0-1.1,0.1-1.5,0.4s-0.8,0.6-1,1.1s-0.4,1-0.4,1.7c0,0.6,0.1,1.2,0.4,1.7s0.6,0.9,1,1.1
		c0.4,0.3,0.9,0.4,1.5,0.4c0.5,0,1-0.1,1.4-0.3s0.7-0.6,0.9-1H60c-0.3,1-0.9,1.7-1.7,2.3c-0.8,0.5-1.7,0.8-2.8,0.8
		c-0.9,0-1.7-0.2-2.5-0.6s-1.3-1-1.7-1.7s-0.6-1.6-0.6-2.5S50.8,21.4,51.2,20.6z"/>
	<path class="st2" d="M63,27.6c-0.6-0.3-1-0.8-1.4-1.4c-0.3-0.6-0.5-1.3-0.5-2.1c0-0.8,0.2-1.5,0.5-2.1s0.8-1.1,1.4-1.4
		c0.6-0.3,1.3-0.5,2-0.5s1.4,0.2,2,0.5s1.1,0.8,1.4,1.4s0.5,1.3,0.5,2.1c0,0.8-0.2,1.5-0.5,2.1c-0.4,0.6-0.8,1.1-1.4,1.4
		s-1.3,0.5-2,0.5S63.6,27.9,63,27.6z M66,26.2c0.3-0.2,0.6-0.4,0.7-0.8c0.2-0.3,0.3-0.8,0.3-1.2c0-0.7-0.2-1.3-0.6-1.7
		c-0.4-0.4-0.8-0.6-1.4-0.6s-1,0.2-1.4,0.6S63,23.4,63,24.2c0,0.7,0.2,1.3,0.5,1.7c0.4,0.4,0.8,0.6,1.4,0.6
		C65.3,26.4,65.7,26.3,66,26.2z"/>
	<path class="st2" d="M82.1,21.1c0.6,0.6,0.9,1.4,0.9,2.4V28h-2v-4.2c0-0.6-0.2-1-0.5-1.4c-0.3-0.3-0.7-0.5-1.2-0.5
		s-0.9,0.2-1.2,0.5c-0.3,0.3-0.5,0.8-0.5,1.4V28h-1.9v-4.2c0-0.6-0.2-1-0.5-1.4c-0.3-0.3-0.7-0.5-1.2-0.5s-0.9,0.2-1.3,0.5
		c-0.3,0.3-0.5,0.8-0.5,1.4V28h-1.9v-7.6h1.9v0.9c0.2-0.3,0.6-0.6,1-0.8c0.4-0.2,0.8-0.3,1.3-0.3c0.6,0,1.1,0.1,1.6,0.4
		s0.8,0.6,1.1,1.1c0.2-0.4,0.6-0.8,1.1-1.1c0.5-0.3,1-0.4,1.5-0.4C80.7,20.3,81.5,20.6,82.1,21.1z"/>
	<path class="st2" d="M96.4,21.1c0.6,0.6,0.9,1.4,0.9,2.4V28h-1.9v-4.2c0-0.6-0.2-1-0.5-1.4s-0.7-0.5-1.2-0.5s-0.9,0.2-1.2,0.5
		S92,23.2,92,23.8V28h-1.9v-4.2c0-0.6-0.2-1-0.5-1.4s-0.7-0.5-1.2-0.5s-0.9,0.2-1.3,0.5s-0.5,0.8-0.5,1.4V28h-1.9v-7.6h1.9v0.9
		c0.2-0.3,0.6-0.6,1-0.8c0.4-0.2,0.8-0.3,1.3-0.3c0.6,0,1.1,0.1,1.6,0.4s0.8,0.6,1.1,1.1c0.2-0.4,0.6-0.8,1.1-1.1
		c0.5-0.3,1-0.4,1.5-0.4C95.1,20.3,95.9,20.6,96.4,21.1z"/>
	<path class="st2" d="M106.3,20.4V28h-1.9v-1c-0.2,0.3-0.6,0.6-1,0.8c-0.4,0.2-0.8,0.3-1.3,0.3c-0.6,0-1.1-0.1-1.6-0.4
		s-0.8-0.6-1.1-1.1S99,25.5,99,24.9v-4.5h1.9v4.2c0,0.6,0.2,1.1,0.5,1.4s0.7,0.5,1.2,0.5s0.9-0.2,1.2-0.5c0.3-0.3,0.5-0.8,0.5-1.4
		v-4.2C104.3,20.4,106.3,20.4,106.3,20.4z"/>
	<path class="st2" d="M114.6,21.1c0.6,0.6,0.8,1.4,0.8,2.4V28h-1.9v-4.2c0-0.6-0.2-1.1-0.5-1.4s-0.7-0.5-1.2-0.5s-0.9,0.2-1.3,0.5
		c-0.3,0.3-0.5,0.8-0.5,1.4V28h-1.9v-7.6h1.9v0.9c0.3-0.3,0.6-0.6,1-0.8c0.4-0.2,0.8-0.3,1.3-0.3C113.3,20.3,114,20.6,114.6,21.1z"
		/>
	<path class="st2" d="M117.4,19.1c-0.2-0.2-0.3-0.5-0.3-0.8s0.1-0.6,0.3-0.8c0.2-0.2,0.5-0.3,0.8-0.3s0.6,0.1,0.8,0.3
		c0.2,0.2,0.3,0.5,0.3,0.8s-0.1,0.6-0.3,0.8c-0.2,0.2-0.5,0.3-0.8,0.3C117.9,19.5,117.6,19.4,117.4,19.1z M119.2,20.4V28h-1.9v-7.6
		H119.2z"/>
	<path class="st2" d="M123.3,22v3.7c0,0.3,0.1,0.4,0.2,0.6c0.1,0.1,0.3,0.2,0.6,0.2h0.9V28h-1.2c-1.6,0-2.4-0.8-2.4-2.4V22h-0.9
		v-1.6h0.9v-1.9h1.9v1.9h1.7V22H123.3z"/>
	<path class="st2" d="M133.7,20.4L129,31.6h-2l1.6-3.8l-3-7.4h2.2l2,5.3l2-5.3C131.8,20.4,133.7,20.4,133.7,20.4z"/>
</g>
</svg>
