<?xml version="1.0" encoding="UTF-8"?><svg id="Layer_1" xmlns="http://www.w3.org/2000/svg" xmlns:xlink="http://www.w3.org/1999/xlink" viewBox="0 0 333.78 99.04"><defs><linearGradient id="linear-gradient" x1="2456.29" y1="-4337.98" x2="2405.62" y2="-4435.42" gradientTransform="translate(-501.15 -1828.46) scale(.22 -.43)" gradientUnits="userSpaceOnUse"><stop offset="0" stop-color="#00a0ff"/><stop offset="0" stop-color="#00a1ff"/><stop offset=".26" stop-color="#00beff"/><stop offset=".51" stop-color="#00d2ff"/><stop offset=".76" stop-color="#00dfff"/><stop offset="1" stop-color="#00e3ff"/></linearGradient><linearGradient id="linear-gradient-2" x1="1340.23" y1="-6284.71" x2="1164.86" y2="-6284.71" gradientTransform="translate(-373.49 -1695.76) scale(.34 -.28)" gradientUnits="userSpaceOnUse"><stop offset="0" stop-color="#ffe000"/><stop offset=".41" stop-color="#ffbd00"/><stop offset=".78" stop-color="orange"/><stop offset="1" stop-color="#ff9c00"/></linearGradient><linearGradient id="linear-gradient-3" x1="1465.06" y1="-6232.72" x2="1305.22" y2="-6355.24" gradientTransform="translate(-454.97 -1627.67) scale(.35 -.27)" gradientUnits="userSpaceOnUse"><stop offset="0" stop-color="#ff3a44"/><stop offset="1" stop-color="#c31162"/></linearGradient><linearGradient id="linear-gradient-4" x1="1341.42" y1="-6408.36" x2="1412.69" y2="-6463.07" gradientTransform="translate(-454.9 -1714.56) scale(.35 -.27)" gradientUnits="userSpaceOnUse"><stop offset="0" stop-color="#32a071"/><stop offset=".07" stop-color="#2da771"/><stop offset=".48" stop-color="#15cf74"/><stop offset=".8" stop-color="#06e775"/><stop offset="1" stop-color="#00f076"/></linearGradient><linearGradient id="linear-gradient-5" x1="3019.54" y1="-3774.29" x2="2992.13" y2="-3853.68" gradientTransform="translate(-514.78 -1950.95) scale(.18 -.52)" gradientUnits="userSpaceOnUse"><stop offset="0" stop-color="#008de0"/><stop offset="0" stop-color="#008de0"/><stop offset=".26" stop-color="#00a7e0"/><stop offset=".51" stop-color="#00b8e0"/><stop offset=".76" stop-color="#00c4e0"/><stop offset="1" stop-color="#00c7e0"/></linearGradient><linearGradient id="linear-gradient-6" x1="1142.84" y1="-6692.24" x2="980.11" y2="-6692.24" gradientTransform="translate(-336.45 -1669.86) scale(.37 -.26)" gradientUnits="userSpaceOnUse"><stop offset="0" stop-color="#e0c500"/><stop offset=".41" stop-color="#e0a600"/><stop offset=".78" stop-color="#e09100"/><stop offset="1" stop-color="#e08900"/></linearGradient><linearGradient id="linear-gradient-7" x1="1142.85" y1="-6763.32" x2="980.12" y2="-6763.32" gradientTransform="translate(-336.45 -1698.63) scale(.37 -.26)" gradientUnits="userSpaceOnUse"><stop offset="0" stop-color="#ffe840"/><stop offset=".41" stop-color="#ffce40"/><stop offset=".78" stop-color="#ffbc40"/><stop offset="1" stop-color="#ffb540"/></linearGradient><linearGradient id="linear-gradient-8" x1="2990.93" y1="-4064.29" x2="2963.67" y2="-4140.03" gradientTransform="translate(-514.88 -2112.15) scale(.18 -.52)" gradientUnits="userSpaceOnUse"><stop offset="0" stop-color="#40b8ff"/><stop offset="0" stop-color="#40b9ff"/><stop offset=".26" stop-color="#40ceff"/><stop offset=".51" stop-color="#40ddff"/><stop offset=".76" stop-color="#40e7ff"/><stop offset="1" stop-color="#40eaff"/></linearGradient></defs><path d="M321.45,99.04H12.37c-6.8,0-12.37-5.57-12.37-12.37V12.37C0,5.57,5.57,0,12.37,0H321.41c6.8,0,12.37,5.57,12.37,12.37V86.67c0,6.8-5.53,12.37-12.33,12.37"/><path d="M117.26,25.35c0,2.06-.61,3.72-1.84,4.95-1.41,1.48-3.22,2.21-5.46,2.21s-3.98-.76-5.46-2.24-2.24-3.33-2.24-5.53,.76-4.05,2.24-5.53c1.48-1.48,3.33-2.24,5.46-2.24,1.05,0,2.1,.22,3.04,.61,.98,.43,1.74,.98,2.31,1.66l-1.3,1.3c-.98-1.19-2.35-1.77-4.05-1.77-1.55,0-2.93,.54-4.05,1.66-1.16,1.08-1.7,2.53-1.7,4.3s.58,3.18,1.7,4.3c1.16,1.08,2.49,1.66,4.05,1.66,1.66,0,3.04-.54,4.16-1.66,.72-.72,1.12-1.74,1.23-3h-5.39v-1.77h7.2c.07,.36,.11,.72,.11,1.08" fill="#fff"/><path d="M117.26,25.35h-.25c0,2.02-.58,3.62-1.77,4.77h0c-1.34,1.41-3.07,2.13-5.28,2.13s-3.83-.72-5.28-2.17-2.17-3.22-2.17-5.35,.72-3.91,2.17-5.35,3.22-2.17,5.28-2.17c1.05,0,2.02,.22,2.96,.61s1.66,.94,2.24,1.59l.18-.14-.18-.18-1.3,1.3,.18,.18,.18-.14c-1.01-1.23-2.46-1.84-4.27-1.84-1.63,0-3.04,.58-4.23,1.74-1.19,1.16-1.77,2.64-1.77,4.45s.58,3.33,1.77,4.45c1.19,1.16,2.6,1.74,4.23,1.74s3.18-.58,4.3-1.74c.76-.76,1.19-1.84,1.3-3.15l.04-.25h-5.42v-1.3h6.94v-.25l-.25,.04c.07,.36,.11,.72,.11,1.08h.51c0-.36-.04-.76-.11-1.16l-.04-.22h-7.63v2.28h5.64v-.29l-.25-.04c-.11,1.23-.51,2.17-1.16,2.86-1.05,1.05-2.35,1.59-3.98,1.59-1.52,0-2.78-.51-3.87-1.59-1.08-1.05-1.63-2.39-1.63-4.12s.54-3.04,1.63-4.12c1.08-1.05,2.39-1.59,3.87-1.59,1.66,0,2.93,.54,3.87,1.66l.18,.22,1.48-1.48,.14-.14-.14-.18c-.61-.72-1.41-1.3-2.42-1.74-1.01-.43-2.06-.65-3.15-.65-2.21,0-4.09,.76-5.64,2.31-1.55,1.52-2.31,3.44-2.31,5.71s.76,4.19,2.31,5.71c1.55,1.52,3.44,2.31,5.64,2.31s4.19-.76,5.64-2.28l-.18-.18,.18,.18c1.27-1.27,1.92-3,1.92-5.13l-.22,.04m11.39-6.22h-6.76v4.7h6.07v1.77h-6.07v4.7h6.76v1.81h-8.68v-14.79h8.68v1.81" fill="#fff"/><path d="M128.65,19.13v-.25h-7.01v5.21h6.07v1.3h-6.07v5.21h6.76v1.34h-8.17v-14.35h8.17v1.59h.25v-.04h.25v-2.06h-9.15v15.37h9.15v-2.31h-6.76v-4.23h6.07v-2.28h-6.07v-4.23h6.76v-.25h-.25m8.03,13.05h-1.92v-13.02h-4.16v-1.81h10.2v1.81h-4.16v13.02" fill="#fff"/><path d="M136.68,32.18v-.25h-1.66v-13.02h-4.16v-1.34h9.69v1.34h-4.16v13.27h.29v0h.25v-12.8h4.16v-2.31h-10.7v2.31h4.16v13.02h2.39v-.25l-.25,.04m11.53,0v-14.86h1.92v14.86h-1.92" fill="#fff"/><path d="M148.21,32.18h.25v-14.61h1.41v14.35h-1.66v.25h0v.25h2.17v-15.37h-2.39v15.37h.25v-.25m10.31,0h-1.92v-13.02h-4.16v-1.81h10.2v1.81h-4.16v13.02" fill="#fff"/><path d="M158.55,32.18v-.25h-1.66v-13.02h-4.16v-1.34h9.69v1.34h-4.16v13.27h.29v0h.25v-12.8h4.16v-2.31h-10.7v2.31h4.16v13.02h2.39v-.25l-.25,.04m13.99-3.18c1.08,1.12,2.46,1.66,4.01,1.66s2.93-.54,4.01-1.66,1.66-2.53,1.66-4.27-.54-3.15-1.66-4.27c-1.08-1.12-2.42-1.66-4.01-1.66s-2.93,.54-4.01,1.66c-1.08,1.12-1.66,2.53-1.66,4.27s.58,3.15,1.66,4.27Zm9.47,1.23c-1.45,1.52-3.25,2.24-5.42,2.24s-3.98-.76-5.42-2.24-2.17-3.33-2.17-5.5,.72-4.01,2.17-5.5c1.45-1.52,3.25-2.24,5.42-2.24s3.98,.76,5.42,2.28c1.45,1.52,2.21,3.33,2.21,5.5-.04,2.13-.76,3.98-2.21,5.46Z" fill="#fff"/><path d="M172.55,29l-.18,.18c1.12,1.16,2.57,1.74,4.19,1.74s3.07-.58,4.19-1.74c1.16-1.16,1.74-2.68,1.74-4.45s-.58-3.29-1.74-4.45c-1.12-1.16-2.57-1.74-4.19-1.74s-3.07,.58-4.19,1.74c-1.16,1.16-1.74,2.68-1.74,4.45s.58,3.29,1.74,4.45l.18-.18,.18-.18c-1.05-1.08-1.59-2.42-1.59-4.09s.54-3.04,1.59-4.09c1.05-1.08,2.31-1.59,3.87-1.59s2.78,.54,3.87,1.59c1.05,1.08,1.59,2.42,1.59,4.09s-.54,3.04-1.59,4.09c-1.05,1.08-2.31,1.59-3.87,1.59s-2.78-.54-3.87-1.59l-.18,.18Zm9.47,1.23l-.18-.18c-1.41,1.45-3.15,2.17-5.28,2.17s-3.83-.72-5.24-2.17h0c-1.41-1.45-2.1-3.22-2.1-5.35s.69-3.87,2.1-5.35c1.41-1.45,3.15-2.17,5.24-2.17s3.83,.72,5.24,2.21,2.13,3.22,2.13,5.32-.69,3.87-2.1,5.35l.18,.18,.18,.18c1.48-1.55,2.24-3.47,2.24-5.68s-.76-4.12-2.28-5.68c-1.52-1.55-3.4-2.35-5.6-2.35s-4.12,.8-5.6,2.31h0c-1.52,1.55-2.24,3.47-2.24,5.68s.76,4.12,2.24,5.68h0c1.48,1.55,3.4,2.31,5.6,2.31s4.12-.8,5.6-2.31l-.14-.14Zm4.85,1.95v-14.86h2.31l7.2,11.57h.07l-.07-2.86v-8.68h1.92v14.86h-1.99l-7.56-12.11h-.07l.07,2.86v9.26l-1.88-.04" fill="#fff"/><path d="M186.87,32.18h.25v-14.61h1.95l7.2,11.57h.47l-.07-3.11v-8.46h1.41v14.35h-1.59l-7.56-12.11h-.47l.07,3.11v9h-1.66v.25h0v.25h2.17v-9.51l-.07-2.86h-.25v.25h.07v-.25l-.22,.14,7.63,12.22h2.39v-15.37h-2.39v8.93l.07,2.86h.25v-.25h-.07v.25l.22-.14-7.34-11.64h-2.71v15.37h.25v-.25m77.52,42.09h4.63v-30.95h-4.63v30.95Zm41.58-19.81l-5.28,13.41h-.14l-5.5-13.41h-4.95l8.24,18.77-4.7,10.45h4.81l12.69-29.18-5.17-.04Zm-26.18,16.31c-1.52,0-3.62-.76-3.62-2.64,0-2.39,2.64-3.29,4.88-3.29,2.02,0,2.96,.43,4.23,1.05-.36,2.82-2.82,4.88-5.5,4.88h0Zm.58-16.99c-3.33,0-6.8,1.48-8.24,4.74l4.09,1.7c.87-1.7,2.49-2.28,4.23-2.28,2.39,0,4.81,1.45,4.85,3.98v.33c-.83-.47-2.64-1.19-4.81-1.19-4.41,0-8.89,2.42-8.89,6.98,0,4.16,3.62,6.8,7.67,6.8,3.11,0,4.81-1.41,5.89-3.04h.14v2.39h4.45v-11.86c0-5.46-4.09-8.53-9.37-8.53h0Zm-28.53,4.45h-6.54v-10.59h6.54c3.44,0,5.42,2.86,5.42,5.32s-1.99,5.28-5.42,5.28Zm-.11-14.9h-11.06v30.95h4.63v-11.75h6.44c5.1,0,10.12-3.72,10.12-9.62s-5.03-9.58-10.12-9.58h0Zm-60.28,27.44c-3.18,0-5.86-2.68-5.86-6.33s2.68-6.44,5.86-6.44,5.6,2.71,5.6,6.44-2.46,6.33-5.6,6.33h0Zm5.28-14.57h-.14c-1.05-1.23-3.04-2.35-5.53-2.35-5.24,0-10.09,4.63-10.09,10.56s4.81,10.49,10.09,10.49c2.49,0,4.48-1.12,5.53-2.39h.14v1.52c0,4.01-2.13,6.18-5.6,6.18-2.82,0-4.59-2.02-5.32-3.76l-4.01,1.66c1.16,2.78,4.23,6.22,9.33,6.22,5.42,0,9.98-3.18,9.98-10.96v-18.91h-4.38v1.74Zm7.56,18.08h4.63v-30.95h-4.63v30.95Zm11.46-10.23c-.11-4.09,3.15-6.15,5.5-6.15,1.84,0,3.4,.9,3.91,2.24l-9.4,3.91Zm14.32-3.51c-.87-2.35-3.54-6.69-9-6.69s-9.91,4.27-9.91,10.52c0,5.89,4.45,10.52,10.45,10.52,4.81,0,7.59-2.96,8.75-4.66l-3.58-2.39c-1.19,1.77-2.82,2.93-5.17,2.93s-4.01-1.08-5.1-3.18l14.07-5.82-.51-1.23Zm-112.02-3.47v4.48h10.67c-.33,2.53-1.16,4.34-2.42,5.64-1.55,1.55-3.98,3.25-8.24,3.25-6.58,0-11.72-5.32-11.72-11.9s5.13-11.9,11.72-11.9c3.54,0,6.15,1.41,8.06,3.18l3.15-3.15c-2.68-2.57-6.22-4.52-11.21-4.52-9,0-16.56,7.34-16.56,16.34s7.56,16.34,16.56,16.34c4.85,0,8.53-1.59,11.39-4.59,2.96-2.96,3.87-7.09,3.87-10.45,0-1.05-.07-1.99-.25-2.78l-15.01,.04Zm27.41,13.7c-3.18,0-5.93-2.64-5.93-6.4s2.75-6.4,5.93-6.4,5.93,2.6,5.93,6.4c0,3.76-2.75,6.4-5.93,6.4Zm0-16.92c-5.82,0-10.56,4.41-10.56,10.52s4.74,10.52,10.56,10.52,10.56-4.48,10.56-10.52-4.77-10.52-10.56-10.52Zm23,16.92c-3.18,0-5.93-2.64-5.93-6.4s2.75-6.4,5.93-6.4,5.93,2.6,5.93,6.4c.04,3.76-2.71,6.4-5.93,6.4h0Zm0-16.92c-5.82,0-10.56,4.41-10.56,10.52s4.74,10.52,10.56,10.52,10.56-4.48,10.56-10.52-4.74-10.52-10.56-10.52h0Z" fill="#fff"/><path d="M26,18.84c-.83,.76-1.34,1.99-1.34,3.65v54.06c0,1.52,.43,2.71,1.16,3.47l.18,.18h0c.58,.54,1.34,.8,2.17,.8s1.77-.25,2.78-.83l35.87-20.43,12.33-7.01c1.55-.9,2.46-2.02,2.6-3.22h0c-.14-1.16-1.01-2.31-2.6-3.22l-12.33-7.01L30.95,18.84c-1.01-.58-1.95-.83-2.78-.83-.83,0-1.59,.29-2.17,.83h0Z" fill="#00c1ff"/><path d="M26,80.2l-.18-.18c-.72-.76-1.16-1.95-1.16-3.47V22.49c0-1.66,.51-2.89,1.34-3.65l30.63,30.66-30.63,30.7" fill="url(#linear-gradient)"/><path d="M66.86,59.73l-10.23-10.23,10.2-10.23,12.33,7.01c1.55,.9,2.46,2.02,2.6,3.22h0c-.14,1.16-1.01,2.31-2.6,3.22l-12.29,7.01" fill="url(#linear-gradient-2)"/><path d="M28.2,80.99c-.87,0-1.59-.29-2.17-.8h0l30.59-30.7,10.2,10.23-35.87,20.43c-.98,.54-1.92,.83-2.75,.83" fill="url(#linear-gradient-3)"/><path d="M56.62,49.5L26,18.8c.58-.54,1.34-.8,2.17-.8s1.77,.25,2.78,.83l35.87,20.43-10.2,10.23" fill="url(#linear-gradient-4)"/><path d="M25.82,80.38c-.72-.76-1.16-1.95-1.16-3.47v-.36c0,1.52,.43,2.71,1.16,3.47l.18,.18-.18,.18" fill="url(#linear-gradient-5)"/><path d="M67.07,59.95l-.22-.22,12.33-7.01c1.55-.9,2.46-2.02,2.6-3.22,0,.43-.11,.87-.29,1.27-.4,.83-1.16,1.63-2.31,2.28l-12.11,6.91" fill="url(#linear-gradient-6)"/><path d="M81.75,49.5c-.14-1.16-1.01-2.31-2.6-3.22l-12.33-7.01,.22-.22h0l12.11,6.87c1.74,.98,2.6,2.28,2.6,3.58" fill="url(#linear-gradient-7)"/><path d="M24.7,22.49v-.76h0c.07-1.34,.47-2.35,1.12-3.04l.18,.18c-.83,.69-1.3,1.95-1.3,3.62" fill="url(#linear-gradient-8)"/></svg>