<?xml version="1.0" encoding="utf-8"?>
<!-- Generator: Adobe Illustrator 26.3.0, SVG Export Plug-In . SVG Version: 6.00 Build 0)  -->
<svg version="1.1" id="Layer_1" xmlns="http://www.w3.org/2000/svg" xmlns:xlink="http://www.w3.org/1999/xlink" x="0px" y="0px"
	 viewBox="0 0 146 40" style="enable-background:new 0 0 146 40;" xml:space="preserve">
<style type="text/css">
	.st0{fill:#02CCC0;}
	.st1{enable-background:new    ;}
	.st2{fill:#FFFFFF;}
</style>
<g>
	<path d="M140.6,39.9H5.4c-3,0-5.4-2.2-5.4-5V5.1c0-2.7,2.4-5,5.4-5h135.2c3,0,5.4,2.2,5.4,5V35C146,37.7,143.6,39.9,140.6,39.9"/>
</g>
<g>
	<g>
		<path class="st0" d="M33.2,14.6c0,2.7-2.2,4.9-4.9,4.9s-4.9-2.2-4.9-4.9s2.2-4.9,4.9-4.9C31,9.7,33.2,11.9,33.2,14.6z"/>
	</g>
	<g>
		<path class="st0" d="M36.9,28.2c0,0.7-0.6,1.2-1.2,1.2H20.9c-0.7,0-1.2-0.6-1.2-1.2c0-4.1,3.3-7.4,7.4-7.4h2.5
			C33.6,20.8,36.9,24.1,36.9,28.2z"/>
	</g>
	<g>
		<path class="st0" d="M17.8,28.2c0,0.3,0.1,0.6,0.2,0.9h-4.7c-0.5,0-0.9-0.4-0.9-0.9v-0.4c0-2.8,2.3-5.1,5.1-5.1h0.8
			c0.6,0,1.2,0.1,1.7,0.3C18.6,24.5,17.8,26.3,17.8,28.2z"/>
	</g>
	<g>
		<path class="st0" d="M21.4,18.2c0,2-1.6,3.6-3.6,3.6s-3.6-1.6-3.6-3.6s1.6-3.6,3.6-3.6S21.4,16.2,21.4,18.2z"/>
	</g>
	<g>
		<path class="st0" d="M38.8,28.2c0,0.3-0.1,0.6-0.2,0.9h4.7c0.5,0,0.9-0.4,0.9-0.9v-0.4c0-2.8-2.3-5.1-5.1-5.1h-0.8
			c-0.6,0-1.2,0.1-1.7,0.3C38.1,24.5,38.8,26.3,38.8,28.2z"/>
	</g>
	<g>
		<path class="st0" d="M35.2,18.2c0,2,1.6,3.6,3.6,3.6s3.6-1.6,3.6-3.6s-1.6-3.6-3.6-3.6S35.2,16.2,35.2,18.2z"/>
	</g>
</g>
<g class="st1">
	<path class="st2" d="M56,5.2v1.1h-2.2v7h-1.3v-7h-2.2V5.2H56z"/>
	<path class="st2" d="M63.1,6.8v6.4h-1.3v-0.8c-0.2,0.3-0.5,0.5-0.8,0.6c-0.3,0.2-0.7,0.2-1.1,0.2c-0.5,0-1-0.1-1.4-0.3
		s-0.7-0.5-0.9-0.9s-0.3-0.9-0.3-1.5V6.8h1.3v3.6c0,0.6,0.1,1,0.4,1.3c0.3,0.3,0.7,0.5,1.2,0.5s0.9-0.2,1.2-0.5s0.4-0.7,0.4-1.3V6.8
		H63.1z"/>
	<path class="st2" d="M66.4,7.9v3.5c0,0.2,0.1,0.4,0.2,0.5s0.3,0.2,0.6,0.2H68v1.1h-1c-0.6,0-1.1-0.1-1.4-0.4
		c-0.3-0.3-0.5-0.7-0.5-1.4V7.9h-0.8V6.8H65V5.3h1.3v1.6h1.6V8L66.4,7.9L66.4,7.9z"/>
	<path class="st2" d="M70.3,12.9c-0.5-0.3-0.9-0.7-1.2-1.2c-0.3-0.5-0.4-1.1-0.4-1.7c0-0.7,0.1-1.2,0.4-1.7s0.7-0.9,1.2-1.2
		c0.5-0.3,1-0.4,1.7-0.4s1.2,0.1,1.7,0.4s0.9,0.7,1.2,1.2c0.3,0.5,0.4,1.1,0.4,1.7c0,0.7-0.1,1.2-0.4,1.7s-0.7,0.9-1.2,1.2
		s-1.1,0.4-1.7,0.4C71.3,13.4,70.8,13.2,70.3,12.9z M72.9,12c0.3-0.2,0.5-0.4,0.7-0.7s0.3-0.7,0.3-1.2s-0.1-0.9-0.3-1.2
		c-0.2-0.3-0.4-0.6-0.7-0.7C72.6,8,72.3,8,71.9,8c-0.3,0-0.7,0.1-0.9,0.2c-0.3,0.2-0.5,0.4-0.7,0.7S70,9.6,70,10.1
		c0,0.7,0.2,1.2,0.5,1.6c0.4,0.4,0.8,0.6,1.3,0.6C72.3,12.2,72.6,12.1,72.9,12z"/>
	<path class="st2" d="M78.7,7c0.3-0.2,0.7-0.3,1.1-0.3v1.4h-0.3c-0.5,0-0.9,0.1-1.2,0.4c-0.3,0.3-0.4,0.7-0.4,1.4v3.4h-1.3V6.8h1.3
		v0.9C78.1,7.5,78.4,7.2,78.7,7z"/>
	<path class="st2" d="M82,13.1c-0.4-0.2-0.7-0.4-0.9-0.7c-0.2-0.3-0.4-0.7-0.4-1.1h1.4c0,0.3,0.2,0.5,0.4,0.7
		c0.2,0.2,0.5,0.3,0.9,0.3s0.7-0.1,0.9-0.2c0.2-0.1,0.3-0.3,0.3-0.6c0-0.2-0.1-0.4-0.3-0.5s-0.6-0.2-1.1-0.4
		c-0.5-0.1-0.9-0.3-1.2-0.4c-0.3-0.1-0.6-0.3-0.8-0.6c-0.2-0.3-0.3-0.6-0.3-1c0-0.3,0.1-0.7,0.3-0.9C81.3,7.4,81.6,7.2,82,7
		s0.8-0.2,1.3-0.2c0.7,0,1.3,0.2,1.8,0.6c0.4,0.4,0.7,0.9,0.7,1.5h-1.3c0-0.3-0.1-0.5-0.3-0.7C84,8,83.7,7.9,83.4,7.9
		S82.8,8,82.6,8.1c-0.2,0.1-0.3,0.3-0.3,0.5s0.1,0.3,0.2,0.4s0.3,0.2,0.5,0.3s0.4,0.1,0.8,0.2c0.5,0.1,0.8,0.2,1.1,0.4
		c0.3,0.1,0.6,0.3,0.8,0.6s0.3,0.6,0.3,1s-0.1,0.7-0.3,1c-0.2,0.3-0.5,0.5-0.9,0.7s-0.8,0.2-1.3,0.2C82.9,13.4,82.4,13.3,82,13.1z"
		/>
</g>
<g class="st1">
	<path class="st2" d="M51.1,21.1c0.4-0.7,1-1.3,1.7-1.7c0.7-0.4,1.6-0.6,2.5-0.6c1.1,0,2,0.3,2.8,0.8s1.4,1.3,1.7,2.3h-2.2
		c-0.2-0.5-0.5-0.8-0.9-1s-0.9-0.3-1.4-0.3c-0.6,0-1.1,0.1-1.5,0.4s-0.8,0.6-1,1.1s-0.4,1-0.4,1.7c0,0.6,0.1,1.2,0.4,1.7
		s0.6,0.9,1,1.1c0.4,0.3,0.9,0.4,1.5,0.4c0.5,0,1-0.1,1.4-0.3c0.4-0.2,0.7-0.6,0.9-1h2.2c-0.3,1-0.9,1.7-1.7,2.3
		c-0.8,0.5-1.7,0.8-2.8,0.8c-0.9,0-1.7-0.2-2.5-0.6c-0.7-0.4-1.3-1-1.7-1.7s-0.6-1.6-0.6-2.5S50.6,21.9,51.1,21.1z"/>
	<path class="st2" d="M62.8,28.1c-0.6-0.3-1-0.8-1.4-1.4c-0.3-0.6-0.5-1.3-0.5-2.1s0.2-1.5,0.5-2.1s0.8-1.1,1.4-1.4
		c0.6-0.3,1.3-0.5,2-0.5c0.7,0,1.4,0.2,2,0.5s1.1,0.8,1.4,1.4s0.5,1.3,0.5,2.1s-0.2,1.5-0.5,2.1c-0.4,0.6-0.8,1.1-1.4,1.4
		s-1.3,0.5-2,0.5C64.1,28.6,63.4,28.4,62.8,28.1z M65.8,26.7c0.3-0.2,0.6-0.4,0.7-0.8c0.2-0.3,0.3-0.8,0.3-1.2
		c0-0.7-0.2-1.3-0.6-1.7c-0.4-0.4-0.8-0.6-1.4-0.6c-0.5,0-1,0.2-1.4,0.6s-0.6,0.9-0.6,1.7s0.2,1.3,0.5,1.7c0.4,0.4,0.8,0.6,1.4,0.6
		C65.2,26.9,65.5,26.8,65.8,26.7z"/>
	<path class="st2" d="M81.9,21.6c0.6,0.6,0.9,1.4,0.9,2.4v4.5h-1.9v-4.2c0-0.6-0.2-1.1-0.5-1.4s-0.7-0.5-1.2-0.5s-0.9,0.2-1.2,0.5
		c-0.3,0.3-0.5,0.8-0.5,1.4v4.2h-1.9v-4.2c0-0.6-0.2-1.1-0.5-1.4s-0.7-0.5-1.2-0.5s-1,0.2-1.3,0.5s-0.5,0.8-0.5,1.4v4.2h-1.9v-7.6
		h1.9v0.9c0.2-0.3,0.6-0.6,1-0.8c0.4-0.2,0.8-0.3,1.3-0.3c0.6,0,1.1,0.1,1.6,0.4s0.8,0.6,1.1,1.1c0.2-0.4,0.6-0.8,1.1-1.1
		c0.5-0.3,1-0.4,1.5-0.4C80.6,20.7,81.3,21,81.9,21.6z"/>
	<path class="st2" d="M96.3,21.6c0.6,0.6,0.9,1.4,0.9,2.4v4.5h-1.9v-4.2c0-0.6-0.2-1.1-0.5-1.4s-0.7-0.5-1.2-0.5s-0.9,0.2-1.2,0.5
		c-0.3,0.3-0.5,0.8-0.5,1.4v4.2H90v-4.2c0-0.6-0.2-1.1-0.5-1.4s-0.7-0.5-1.2-0.5s-1,0.2-1.3,0.5s-0.5,0.8-0.5,1.4v4.2h-1.9v-7.6h1.9
		v0.9c0.2-0.3,0.6-0.6,1-0.8c0.4-0.2,0.8-0.3,1.3-0.3c0.6,0,1.1,0.1,1.6,0.4s0.8,0.6,1.1,1.1c0.2-0.4,0.6-0.8,1.1-1.1
		c0.5-0.3,1-0.4,1.5-0.4C95,20.7,95.7,21,96.3,21.6z"/>
	<path class="st2" d="M106.2,20.9v7.6h-1.9v-1c-0.2,0.3-0.6,0.6-1,0.8s-0.8,0.3-1.3,0.3c-0.6,0-1.1-0.1-1.6-0.4s-0.8-0.6-1.1-1.1
		c-0.3-0.5-0.4-1.1-0.4-1.8v-4.5h1.9V25c0,0.6,0.2,1.1,0.5,1.4s0.7,0.5,1.2,0.5s0.9-0.2,1.2-0.5c0.3-0.3,0.5-0.8,0.5-1.4v-4.2h2
		V20.9z"/>
	<path class="st2" d="M114.5,21.6c0.6,0.6,0.8,1.4,0.8,2.4v4.5h-1.9v-4.2c0-0.6-0.2-1.1-0.5-1.4s-0.7-0.5-1.2-0.5s-1,0.2-1.3,0.5
		s-0.5,0.8-0.5,1.4v4.2H108v-7.6h1.9v0.9c0.3-0.3,0.6-0.6,1-0.8c0.4-0.2,0.8-0.3,1.3-0.3C113.2,20.7,113.9,21,114.5,21.6z"/>
	<path class="st2" d="M117.3,19.6c-0.2-0.2-0.3-0.5-0.3-0.8s0.1-0.6,0.3-0.8c0.2-0.2,0.5-0.3,0.8-0.3s0.6,0.1,0.8,0.3
		c0.2,0.2,0.3,0.5,0.3,0.8s-0.1,0.6-0.3,0.8s-0.5,0.3-0.8,0.3S117.5,19.8,117.3,19.6z M119.1,20.9v7.6h-1.9v-7.6H119.1z"/>
	<path class="st2" d="M123.2,22.4v3.7c0,0.3,0.1,0.4,0.2,0.6c0.1,0.1,0.3,0.2,0.6,0.2h0.9v1.6h-1.2c-1.6,0-2.4-0.8-2.4-2.4v-3.7
		h-0.9v-1.6h0.9V19h1.9v1.9h1.7v1.6h-1.7V22.4z"/>
	<path class="st2" d="M133.6,20.9l-4.7,11.2h-2l1.6-3.8l-3-7.4h2.2l2,5.3l2-5.3C131.7,20.9,133.6,20.9,133.6,20.9z"/>
</g>
</svg>
