<svg id="Layer_1" data-name="Layer 1" xmlns="http://www.w3.org/2000/svg" viewBox="0 0 24 24"><defs><style>.cls-1{fill:#cee9f9;}.cls-2{fill:#005897;}</style></defs><g id="Group_629" data-name="Group 629"><circle id="Ellipse_46" data-name="Ellipse 46" class="cls-1" cx="12" cy="12" r="11.8"/></g><path class="cls-2" d="M11.64,12.93l-.16,0A20.57,20.57,0,0,1,9.37,12c-.3-.1-.4-.46-.45-.79A1.91,1.91,0,0,1,10.69,9c.31,0,.41-.2.56-.37C12.68,7,14.11,5.44,15.53,3.81c.3-.34.52-.37.86-.05,1.22,1.12,1.15.73.12,2S14.44,8.14,13.4,9.35A1.78,1.78,0,0,0,13.05,11,1.44,1.44,0,0,1,11.64,12.93Zm0-.64a.74.74,0,0,0,.76-1,2.51,2.51,0,0,1,.65-2.54c1.12-1.21,2.17-2.48,3.26-3.7.2-.23.14-.33-.05-.48s-.28-.3-.52,0C14.21,6.32,12.61,8.1,11,9.89a2,2,0,0,0-.47.82A1.18,1.18,0,0,0,11.69,12.29ZM10,11.63a2.68,2.68,0,0,1,.35-1.9C9.44,10.34,9.3,11.09,10,11.63Z"/><path class="cls-2" d="M6.75,21.89a13.25,13.25,0,0,0,.1-2.51,33.89,33.89,0,0,0-.6-5.6,19.08,19.08,0,0,1-.49-2,3.62,3.62,0,0,1,.72-2.45C7.8,7.51,9,5.62,10.31,3.75l1.3-1.94c.13-.19.27-.4.53-.25s.13.38,0,.57c-1.66,2.48-3.28,5-5,7.43a3.32,3.32,0,0,0-.57,3.08c.12.43.27.69.76.59a.31.31,0,0,1,.41.29c0,.28-.19.33-.41.35,0,0,0,0,0,0-.29,0-.35.1-.3.35a38.27,38.27,0,0,1,.54,4.65,15.52,15.52,0,0,1-.07,3c0,.24-.13.41-.38.39A.32.32,0,0,1,6.75,21.89Z"/><path class="cls-2" d="M12.79,22.42c-.28,0-.37-.27-.18-.58a8.51,8.51,0,0,0,1-2.42,8.91,8.91,0,0,0,0-3.88,1.88,1.88,0,0,0-.22-.48,2.19,2.19,0,0,1,.36-2.64c2-2.05,4-4.08,6.08-6.12.16-.16.34-.29.53-.11s.05.42-.13.6l-5.82,5.83a1.63,1.63,0,0,0-.36,2.3,4,4,0,0,1,.31,1.44,9.3,9.3,0,0,1-1.22,5.74C13.08,22.24,13,22.41,12.79,22.42Z"/><path class="cls-2" d="M8.28,17.6c0-.75,0-1.5,0-2.25a2.05,2.05,0,0,1,2.82-1.84,1.27,1.27,0,0,1,.66,1.94,3.1,3.1,0,0,0-.51,1.8c0,.9-.05,1.81-.05,2.72,0,.42-.18.56-.58.55-.6,0-1.21,0-1.81,0-.39,0-.55-.13-.54-.53,0-.8,0-1.6,0-2.39Zm.59-.12h0c0,.35,0,.71,0,1.06s-.2,1,.09,1.27.86.05,1.3.07c.27,0,.35-.07.35-.34,0-.76.06-1.53,0-2.29a3.47,3.47,0,0,1,.57-2.12c.3-.42.14-.82-.35-1a1.46,1.46,0,0,0-2,1.33C8.85,16.11,8.87,16.8,8.87,17.48Z"/></svg>