<svg id="Layer_1" data-name="Layer 1" xmlns="http://www.w3.org/2000/svg" viewBox="0 0 24 24"><defs><style>.cls-1,.cls-3{fill:#cee9f9;}.cls-2,.cls-4{fill:#005897;}.cls-2{stroke:#cee8f9;stroke-width:0.1px;fill-rule:evenodd;}.cls-2,.cls-3{stroke-miterlimit:10;}.cls-3{stroke:#005897;stroke-width:0.75px;}</style></defs><g id="Group_629" data-name="Group 629"><circle id="Ellipse_46" data-name="Ellipse 46" class="cls-1" cx="12" cy="12" r="11.8"/></g><path class="cls-2" d="M10,16.08c-1,1.3-2,2.47-2.89,3.67-.5.67-.91.73-1.5.08C4.81,19,4,18.19,3.14,17.4c-.52-.49-.52-.81.1-1.26,1.24-.9,2.41-1.9,3.63-2.83.59-.45.55-.83.16-1.42A31.52,31.52,0,0,1,5,8.38C4.11,6.59,4.52,5.31,6.2,4.22a7.23,7.23,0,0,1,7.7.11c1.47,1,1.88,2.22,1.11,3.83s-1.64,3-2.58,4.69c1.32,1,2.69,2.15,4.1,3.22.82.62.86.69.13,1.42S15.05,19,14.3,19.87c-.56.62-1,.53-1.42-.1C12,18.55,11,17.37,10,16.08ZM8,12.14c.36-.41.51-.63.71-.81a1.11,1.11,0,0,0,.11-1.76A24.54,24.54,0,0,1,7.45,7.26c-.29-.46-.18-.75.23-1.06a3.83,3.83,0,0,1,4.55,0c.42.32.52.64.22,1.07-1.43,2-2.74,4.11-4.33,6a35.8,35.8,0,0,1-4.06,3.56l2.3,2.35c.23-.27.48-.53.69-.82,1.79-2.42,3.61-4.82,5.34-7.29a26.56,26.56,0,0,0,1.89-3.38,1.79,1.79,0,0,0-.48-2.29c-1.91-1.78-5.91-1.76-7.75.07a1.55,1.55,0,0,0-.52,1.87C6.31,8.89,7.15,10.44,8,12.14Zm3.8,1.35c-.37.52-.74,1-1.05,1.49a.73.73,0,0,0,0,.63c.91,1.22,1.85,2.41,2.75,3.57L16,16.87ZM11.63,7A2.51,2.51,0,0,0,8.29,7L10,9.71Z"/><circle class="cls-3" cx="18.19" cy="15.03" r="3.99"/><path class="cls-4" d="M16.36,17.07a1.33,1.33,0,0,1-.81-.28.29.29,0,0,1-.14-.21.25.25,0,0,1,.11-.21L21.94,10a.52.52,0,0,1,.39-.19.52.52,0,0,1,.31.13l.14.14.25.25a.45.45,0,0,1,0,.66l-3.66,3.67a.36.36,0,0,1-.27.11H19a.33.33,0,0,1-.1-.06.41.41,0,0,0-.21.1c-.11.09-.18.15-.17.25a1,1,0,0,1-.41.88l-.45.44c-.13.13-.26.27-.4.4A1.3,1.3,0,0,1,16.36,17.07Zm1.92-3s-.05,0-.1.07l-2.31,2.32a.46.46,0,0,0-.07.07s0,.05.06.08a1,1,0,0,0,.49.13,1,1,0,0,0,.69-.28c.21-.19.4-.39.6-.59l.46-.46a.2.2,0,0,0,.08-.19.74.74,0,0,1,.32-.75c.08-.05.09-.08.09-.1s0-.05-.07-.08a1.1,1.1,0,0,1-.16-.15S18.31,14.08,18.28,14.08Zm.57-.6c-.19.14-.29.23-.3.31s.08.19.24.34l.18.18s.07.09.12.1a2.31,2.31,0,0,0,.39-.38l-.56-.56,0-.08v0Zm3.43-3.4s-.06,0-.1.07L19.6,12.73l-.16.15c-.14.12-.28.23-.29.34s.12.2.24.3a1,1,0,0,1,.22.2s.07.07.09.07.06,0,.11-.07l1.94-2,.82-.82c.17-.17.27-.27.27-.34s-.11-.18-.29-.35-.16-.18-.26-.18v0Z"/><path class="cls-4" d="M22.33,9.82h0a.37.37,0,0,1,.25.12c.13.13.27.25.39.38a.39.39,0,0,1,0,.58l-3.66,3.67a.33.33,0,0,1-.23.09H19c-.06,0-.11-.1-.17-.1s0,0-.07,0-.34.22-.32.42a.92.92,0,0,1-.39.83c-.3.27-.56.57-.85.84a1.24,1.24,0,0,1-.84.33,1.28,1.28,0,0,1-.77-.26c-.14-.11-.17-.2,0-.34L22,10a.51.51,0,0,1,.35-.17m-2.63,4c.05,0,.09,0,.15-.09L22.61,11c.39-.39.39-.39,0-.78-.08-.07-.14-.19-.31-.19h0c-.07,0-.12.08-.18.14l-2.54,2.53c-.17.17-.45.34-.47.53s.32.34.47.53.1.1.14.1m-.63.62a1.49,1.49,0,0,0,.47-.43.22.22,0,0,0-.05-.08L19,13.43s0,0-.06,0,0,0-.08,0c-.42.31-.43.39-.07.74l.17.18a.42.42,0,0,0,.15.12h0m-2.72,2.34a1.1,1.1,0,0,0,.74-.29c.35-.35.7-.71,1.06-1a.3.3,0,0,0,.09-.25.67.67,0,0,1,.3-.69c.12-.09.16-.18,0-.28a.93.93,0,0,1-.14-.14c0-.06-.08-.09-.13-.09a.25.25,0,0,0-.14.09c-.77.78-1.54,1.54-2.31,2.31l-.11.13c0,.09.09.11.14.14a1,1,0,0,0,.49.12m6-7.11a.56.56,0,0,0-.43.21l-6.42,6.41a.35.35,0,0,0-.13.27.37.37,0,0,0,.17.25,1.4,1.4,0,0,0,.84.29,1.36,1.36,0,0,0,.92-.36c.14-.13.27-.27.4-.41l.45-.43a1,1,0,0,0,.43-.94c0-.06,0-.11.15-.19a1.31,1.31,0,0,0,.12-.11h0a.24.24,0,0,0,.13.08h.12a.42.42,0,0,0,.31-.13l1-1L23.06,11a.5.5,0,0,0,0-.75L22.82,10l-.14-.14a.56.56,0,0,0-.33-.15h0Zm-2.63,4-.05-.05a1.47,1.47,0,0,0-.22-.21c-.11-.08-.22-.17-.22-.25s.15-.2.26-.29l.17-.15,2.54-2.54.05-.05.06-.06a.25.25,0,0,1,.17.11l.05.06c.15.14.27.26.27.31s-.12.16-.25.3l-.81.81-1.95,2-.07.05Zm-.63.61L19,14.27l-.12-.13-.06-.05c-.07-.07-.22-.23-.22-.29s.18-.2.28-.27l.21.21.3.3a3.08,3.08,0,0,1-.33.3Zm-3.2,2.22,0,0,.7-.7c.54-.54,1.08-1.07,1.61-1.61l.06-.06,0,0a.88.88,0,0,0,.16.17l.05,0-.06,0a.8.8,0,0,0-.35.8s0,.08-.06.14l-.46.47-.6.58a.93.93,0,0,1-.65.27.82.82,0,0,1-.43-.12h-.05Z"/><path class="cls-1" d="M16.06,16.32c0,.08.08.09.13.12a.87.87,0,0,0,1-.15c.3-.29.6-.6.9-.9a.27.27,0,0,0,.08-.22.59.59,0,0,1,.25-.59c.11-.08.14-.15,0-.24l-.12-.13c-.08-.11-.14-.09-.23,0l-2,2Z"/></svg>