<svg id="Layer_1" data-name="Layer 1" xmlns="http://www.w3.org/2000/svg" viewBox="0 0 24 24"><defs><style>.cls-1{fill:#cee9f9;}.cls-2{fill:#005897;fill-rule:evenodd;}</style></defs><g id="Group_629" data-name="Group 629"><circle id="Ellipse_46" data-name="Ellipse 46" class="cls-1" cx="12" cy="12" r="11.8"/></g><path class="cls-2" d="M14.76,3a7.63,7.63,0,0,1,.88.33,2.48,2.48,0,0,1,1.09,1.15.37.37,0,0,0,.24.2,2.17,2.17,0,0,1,1.52,2.1.4.4,0,0,0,.23.4,2.65,2.65,0,0,1,1.1,3.08.21.21,0,0,0,.07.26,2.52,2.52,0,0,1,.66,2.72,2.42,2.42,0,0,1-.24.55.27.27,0,0,0,0,.31,2.38,2.38,0,0,1-.05,2.69,1.79,1.79,0,0,0-.32,1,2.61,2.61,0,0,1-2.46,2.47c-.15,0-.18.11-.24.19a2.88,2.88,0,0,1-4.82-.05,2.14,2.14,0,0,0-.13-.19h0c-.23.26-.44.54-.68.78a2.84,2.84,0,0,1-3.76.08c-.23-.21-.4-.46-.61-.68a.37.37,0,0,0-.19-.11,2.63,2.63,0,0,1-2.39-2c-.06-.3,0-.61-.07-.92a.25.25,0,0,0-.07-.19,2.5,2.5,0,0,1-.28-3.06c.08-.14,0-.22,0-.33a2.62,2.62,0,0,1,.14-2.9v0c.13-.15.34-.28.38-.45s-.1-.38-.13-.58a2.64,2.64,0,0,1,.92-2.42.83.83,0,0,1,.21-.17c.27-.1.32-.28.31-.55a2.19,2.19,0,0,1,1.51-2,.41.41,0,0,0,.22-.17A2.68,2.68,0,0,1,9.73,3l0,0h.62l.12,0a2.57,2.57,0,0,1,1.32.72c.16.16.29.35.44.53a.83.83,0,0,0,.08-.12,2.64,2.64,0,0,1,1.4-1.06L14.14,3ZM4.84,14.47l-.12.24a1.77,1.77,0,0,0,.46,2,.53.53,0,0,1,.18.53,1.73,1.73,0,0,0,0,.6,1.86,1.86,0,0,0,2,1.66.36.36,0,0,1,.39.18c0,.08.08.16.13.24A2.1,2.1,0,0,0,9.79,21a2.27,2.27,0,0,0,2.06-2.75,2.2,2.2,0,0,0-2.1-1.74c-.26,0-.41-.16-.41-.37a.37.37,0,0,1,.44-.36,2.82,2.82,0,0,1,1.77.65l.36.31V14.35c0-1.49,0-3,0-4.47a.75.75,0,0,0-.46-.76,1.65,1.65,0,0,0-.32-.07.37.37,0,0,1,0-.73l.27,0c.15,0,.3.09.46.13v0c0-.9,0-1.81,0-2.71a2,2,0,0,0-1.08-1.84,1.69,1.69,0,0,0-2.21.68l.21,0a2.27,2.27,0,0,1,1,.57.31.31,0,0,1,.08.38.5.5,0,0,1-.29.23.7.7,0,0,1-.4-.18,1.44,1.44,0,0,0-1.72-.1,1.42,1.42,0,0,0-.68,1.24h.13A2.63,2.63,0,0,1,9.7,9.34c0,.27-.13.44-.35.44S9,9.63,9,9.38a2,2,0,0,0-.51-1.27A1.73,1.73,0,0,0,7,7.49a1.94,1.94,0,0,0-1.44,2.73c.17.31.11.42-.16.66a2.25,2.25,0,0,0-.55.64,1.92,1.92,0,0,0,1.57,2.77c.26,0,.41.16.4.37a.34.34,0,0,1-.43.35,3.49,3.49,0,0,1-.85-.19A3.73,3.73,0,0,1,4.84,14.47Zm7.8,2.23c.22-.17.41-.34.62-.48a2.72,2.72,0,0,1,1.57-.46.36.36,0,0,1,.37.35.37.37,0,0,1-.35.38h-.11a2.21,2.21,0,0,0-2,3A2.17,2.17,0,0,0,16,20.68a2.21,2.21,0,0,0,.84-.9.42.42,0,0,1,.52-.27,1,1,0,0,0,.25,0,1.91,1.91,0,0,0,1.65-2,1.15,1.15,0,0,1,.34-1,1.67,1.67,0,0,0,.13-2l-.26.18a2.31,2.31,0,0,1-1.27.38.36.36,0,0,1-.38-.34.36.36,0,0,1,.36-.39,1.67,1.67,0,0,0,.39-.06,1.89,1.89,0,0,0,1.4-1.51,1.76,1.76,0,0,0-.74-1.86c-.26-.19-.3-.33-.17-.59a1.86,1.86,0,0,0-.26-2.12,1.67,1.67,0,0,0-2.21-.42,2,2,0,0,0-1,1.65c0,.25-.16.41-.38.4s-.35-.17-.35-.42a2.65,2.65,0,0,1,2-2.53,6,6,0,0,1,.95-.11,1.4,1.4,0,0,0-1-1.37,1.42,1.42,0,0,0-1.38.3c-.25.21-.46.21-.61,0s-.1-.39.13-.6a2.28,2.28,0,0,1,1.07-.52,1.71,1.71,0,0,0-1.86-.81,2,2,0,0,0-1.43,1.93c0,.89,0,1.78,0,2.67v.1a6.27,6.27,0,0,1,.71-.13.34.34,0,0,1,.38.33.37.37,0,0,1-.33.39.76.76,0,0,0-.76.88V16.7Z"/><path class="cls-2" d="M8.91,12A2.62,2.62,0,0,1,7.6,11.3a2.49,2.49,0,0,1-.82-1.8c0-.27.13-.44.35-.45a.38.38,0,0,1,.38.41A1.82,1.82,0,0,0,9,11.2a1.76,1.76,0,0,0,1.47-.32.91.91,0,0,1,.28-.17.34.34,0,0,1,.42.18.36.36,0,0,1-.09.45A2.35,2.35,0,0,1,10,11.9a.42.42,0,0,0-.38.33,1.81,1.81,0,0,1-1.66,1.22.38.38,0,0,1-.42-.35.36.36,0,0,1,.38-.38,1.11,1.11,0,0,0,1-.69A.34.34,0,0,0,8.91,12Z"/><path class="cls-2" d="M9.75,19.81a2,2,0,0,1-.18.36.3.3,0,0,1-.37.06A.38.38,0,0,1,9,19.88a2,2,0,0,0-.4-1.15A1.81,1.81,0,0,0,7.15,18a.37.37,0,1,1,0-.73,3.91,3.91,0,0,1,.48.05A2.79,2.79,0,0,1,9.75,19.81Z"/><path class="cls-2" d="M10,14.28a1.19,1.19,0,0,1,.26.05.33.33,0,0,1,.21.38.37.37,0,0,1-.34.31,7.76,7.76,0,0,0-.84.15,2.43,2.43,0,0,0-1.32,1l-.11.16a.37.37,0,0,1-.51.09.36.36,0,0,1-.09-.5,3.87,3.87,0,0,1,.49-.64A3.28,3.28,0,0,1,10,14.28Z"/><path class="cls-2" d="M15.63,12a1.11,1.11,0,0,0,1,.75A.39.39,0,0,1,17,13a.32.32,0,0,1-.08.37.55.55,0,0,1-.32.12,1.83,1.83,0,0,1-1.69-1.29.27.27,0,0,0-.25-.23,2.41,2.41,0,0,1-1.06-.5c-.25-.19-.31-.39-.16-.58s.35-.2.59,0a2,2,0,0,0,1,.4,1.84,1.84,0,0,0,1.71-.85A2.06,2.06,0,0,0,17,9.45c0-.25.16-.4.37-.4a.38.38,0,0,1,.36.42,2.58,2.58,0,0,1-1.93,2.44Z"/><path class="cls-2" d="M14.84,19.77a2.65,2.65,0,0,1,2.48-2.55c.27,0,.44.14.44.36s-.14.36-.4.37a2,2,0,0,0-1.79,1.86.61.61,0,0,1,0,.14.36.36,0,0,1-.72,0A1,1,0,0,1,14.84,19.77Z"/><path class="cls-2" d="M14.74,14.3a3.21,3.21,0,0,1,2.57,1.62.37.37,0,1,1-.61.4,7.16,7.16,0,0,0-.69-.77A2.26,2.26,0,0,0,14.56,15a.42.42,0,0,1-.46-.39C14.12,14.41,14.29,14.28,14.74,14.3Z"/></svg>